<svg width="65" height="21" viewBox="0 0 65 21" fill="none" xmlns="http://www.w3.org/2000/svg">
<g clip-path="url(#clip0_569_309255)">
<path d="M2.33622 16.2353L4.05276 13.2723C4.46083 12.5679 5.21323 12.1343 6.02727 12.1343C6.86077 12.1343 7.62796 12.5887 8.02848 13.3197L9.66207 16.3011C9.76407 16.4872 9.62936 16.7146 9.41709 16.7146L8.32755 16.7146C8.22704 16.7146 8.13428 16.6606 8.08464 16.5732L6.54619 13.8639C6.31689 13.4601 5.73702 13.4543 5.49967 13.8534L3.90097 16.542C3.8495 16.6286 3.7554 16.6807 3.65471 16.6785L2.57176 16.6546C2.35933 16.6499 2.22971 16.4192 2.33622 16.2353Z" fill="#0CBA29"/>
<path d="M2.33817 5.21294L4.05471 8.17593C4.46278 8.88031 5.21518 9.31397 6.02923 9.31397C6.86273 9.31397 7.62992 8.85952 8.03043 8.12856L9.66402 5.14718C9.76602 4.96102 9.63131 4.73361 9.41904 4.73361L8.32951 4.73361C8.22899 4.73361 8.13623 4.78761 8.0866 4.87502L6.54814 7.58436C6.31884 7.98818 5.73897 7.99399 5.50163 7.59484L3.90293 4.90623C3.85145 4.81966 3.75736 4.76751 3.65666 4.76973L2.57372 4.79364C2.36128 4.79834 2.23166 5.02908 2.33817 5.21294Z" fill="#0CBA29"/>
<path d="M11.5122 7.17069L8.54917 8.88723C7.84479 9.2953 7.41113 10.0477 7.41113 10.8617C7.41113 11.6952 7.86557 12.4624 8.59654 12.863L11.5779 14.4965C11.7641 14.5985 11.9915 14.4638 11.9915 14.2516L11.9915 13.162C11.9915 13.0615 11.9375 12.9687 11.8501 12.9191L9.14074 11.3807C8.73692 11.1514 8.73111 10.5715 9.13026 10.3341L11.8189 8.73545C11.9054 8.68397 11.9576 8.58988 11.9554 8.48918L11.9315 7.40624C11.9268 7.1938 11.696 7.06418 11.5122 7.17069Z" fill="#0CBA29"/>
<path d="M0.483938 7.17069L3.44692 8.88723C4.15131 9.2953 4.58496 10.0477 4.58496 10.8617C4.58496 11.6952 4.13052 12.4624 3.39956 12.863L0.418172 14.4965C0.232015 14.5985 0.00460435 14.4638 0.00460436 14.2516L0.00460441 13.162C0.00460441 13.0615 0.0586057 12.9687 0.146011 12.9191L2.85536 11.3807C3.25918 11.1514 3.26498 10.5715 2.86584 10.3341L0.177229 8.73545C0.0906585 8.68397 0.038503 8.58988 0.0407265 8.48918L0.0646404 7.40624C0.069331 7.1938 0.300078 7.06418 0.483938 7.17069Z" fill="#0CBA29"/>
</g>
<path d="M18.9151 5.58634H20.4804L24.9643 17H23.2033L19.6977 7.70602L16.1921 17H14.4311L18.9151 5.58634ZM16.9747 12.6139H22.4207L22.6653 14.0977H16.7302L16.9747 12.6139ZM25.6331 8.78216H27.2147V10.2333C27.3886 9.75504 27.693 9.37459 28.1278 9.09196C28.5626 8.79847 29.0789 8.65172 29.6768 8.65172C30.3181 8.65172 30.8725 8.8039 31.3399 9.10827C31.8182 9.40176 32.1389 9.81483 32.3019 10.3475C32.4758 9.85831 32.8128 9.45611 33.3128 9.14088C33.8237 8.81477 34.3781 8.65172 34.976 8.65172C35.563 8.65172 36.0738 8.78216 36.5087 9.04305C36.9435 9.29306 37.275 9.65721 37.5033 10.1355C37.7424 10.6029 37.862 11.1519 37.862 11.7823V17H36.2804V12.2226C36.2804 11.5595 36.1228 11.0323 35.8075 10.641C35.5032 10.2388 35.0792 10.0377 34.5357 10.0377C34.1335 10.0377 33.7802 10.1518 33.4759 10.3801C33.1715 10.6083 32.9378 10.9127 32.7748 11.2932C32.6117 11.6628 32.5302 12.0704 32.5302 12.5161V17H30.9486V12.2226C30.9486 11.5595 30.791 11.0323 30.4757 10.641C30.1714 10.2388 29.7529 10.0377 29.2202 10.0377C28.818 10.0377 28.4647 10.1518 28.1604 10.3801C27.856 10.6083 27.6223 10.9127 27.4593 11.2932C27.2962 11.6628 27.2147 12.0704 27.2147 12.5161V17H25.6331V8.78216ZM39.4072 8.78216H40.9888V9.98875C41.2388 9.58656 41.6029 9.26589 42.0812 9.02674C42.5595 8.77673 43.0704 8.65172 43.6139 8.65172C44.4292 8.65172 45.1249 8.83651 45.701 9.2061C46.288 9.56482 46.7336 10.0648 47.038 10.7062C47.3532 11.3475 47.5109 12.0758 47.5109 12.8911C47.5109 13.7063 47.3532 14.4346 47.038 15.076C46.7336 15.7173 46.288 16.2228 45.701 16.5924C45.1249 16.9511 44.4346 17.1304 43.6302 17.1304C43.0758 17.1304 42.5541 17.0054 42.0649 16.7554C41.5866 16.5054 41.2279 16.1793 40.9888 15.7771V20.3263H39.4072V8.78216ZM43.3856 15.7445C43.8857 15.7445 44.3259 15.6249 44.7064 15.3858C45.0868 15.1466 45.3803 14.8151 45.5868 14.3912C45.8042 13.9564 45.913 13.4563 45.913 12.8911C45.913 12.0323 45.6792 11.3421 45.2118 10.8203C44.7553 10.2986 44.1466 10.0377 43.3856 10.0377C42.8856 10.0377 42.4454 10.1572 42.0649 10.3964C41.6845 10.6355 41.3855 10.9725 41.1681 11.4073C40.9616 11.8312 40.8583 12.3258 40.8583 12.8911C40.8583 13.7498 41.0866 14.4401 41.5431 14.9618C42.0106 15.4836 42.6247 15.7445 43.3856 15.7445ZM48.6432 5.34176H50.2248V17H48.6432V5.34176ZM51.8762 8.78216H53.4578V17H51.8762V8.78216ZM53.5393 5.34176V7.331H51.7784V5.34176H53.5393ZM58.7942 17.1304C57.9789 17.1304 57.2506 16.9511 56.6093 16.5924C55.968 16.2228 55.4625 15.7173 55.0929 15.076C54.7342 14.4346 54.5548 13.7063 54.5548 12.8911C54.5548 12.0758 54.7342 11.3475 55.0929 10.7062C55.4625 10.0648 55.968 9.56482 56.6093 9.2061C57.2506 8.83651 57.9789 8.65172 58.7942 8.65172C59.5986 8.65172 60.3215 8.83651 60.9628 9.2061C61.6041 9.56482 62.1042 10.0648 62.4629 10.7062C62.8325 11.3475 63.0173 12.0758 63.0173 12.8911C63.0173 13.7063 62.8325 14.4346 62.4629 15.076C62.1042 15.7173 61.6041 16.2228 60.9628 16.5924C60.3215 16.9511 59.5986 17.1304 58.7942 17.1304ZM58.7942 15.7445C59.3051 15.7445 59.7562 15.6249 60.1475 15.3858C60.5497 15.1358 60.8595 14.7988 61.0769 14.3749C61.2943 13.9401 61.403 13.4455 61.403 12.8911C61.403 12.3367 61.2943 11.8475 61.0769 11.4236C60.8595 10.9888 60.5497 10.6518 60.1475 10.4127C59.7562 10.1627 59.3051 10.0377 58.7942 10.0377C58.2833 10.0377 57.8268 10.1627 57.4246 10.4127C57.0224 10.6518 56.7126 10.9888 56.4952 11.4236C56.2778 11.8475 56.1691 12.3367 56.1691 12.8911C56.1691 13.4455 56.2778 13.9401 56.4952 14.3749C56.7126 14.7988 57.0224 15.1358 57.4246 15.3858C57.8268 15.6249 58.2833 15.7445 58.7942 15.7445Z" fill="#0CBA29"/>
<defs>
<clipPath id="clip0_569_309255">
<rect width="12.2299" height="12.2299" fill="white" transform="translate(0 4.38525)"/>
</clipPath>
</defs>
</svg>
