<svg width="209" height="201" viewBox="0 0 209 201" fill="none" xmlns="http://www.w3.org/2000/svg">
<g filter="url(#filter0_d_448_200893)">
<g filter="url(#filter1_i_448_200893)">
<path d="M169.703 77.7177V143.359C169.703 148.984 165.143 153.545 159.517 153.545H49.305C43.6794 153.545 39.119 148.984 39.119 143.359V77.7177C39.119 74.536 40.6057 71.537 43.138 69.6107L98.2442 27.6912C101.888 24.9192 106.934 24.9192 110.578 27.6912L165.684 69.6107C168.217 71.537 169.703 74.536 169.703 77.7177Z" fill="#D9D9D9"/>
</g>
<g filter="url(#filter2_d_448_200893)">
<rect x="96.5956" y="52.3428" width="57.2452" height="73.7465" rx="6.11159" transform="rotate(15 96.5956 52.3428)" fill="white"/>
</g>
<g filter="url(#filter3_d_448_200893)">
<rect x="56.9434" y="69.4551" width="57.2452" height="73.7465" rx="6.11159" transform="rotate(-20.2428 56.9434 69.4551)" fill="white"/>
</g>
<g filter="url(#filter4_d_448_200893)">
<rect x="75.785" y="47.0879" width="57.2452" height="73.7465" rx="6.11159" fill="white"/>
</g>
<circle cx="88.3219" cy="63.0799" r="6.62089" fill="url(#paint0_linear_448_200893)"/>
<rect x="102.471" y="57.8867" width="21.798" height="3.66695" rx="1.83348" fill="url(#paint1_linear_448_200893)"/>
<rect x="81.701" y="75.8145" width="42.5774" height="3.66695" rx="1.83348" fill="url(#paint2_linear_448_200893)"/>
<rect x="81.701" y="83.1475" width="42.5774" height="3.66695" rx="1.83348" fill="url(#paint3_linear_448_200893)"/>
<rect x="81.701" y="91.498" width="42.5774" height="3.66695" rx="1.83348" fill="url(#paint4_linear_448_200893)"/>
<rect x="81.701" y="99.8516" width="42.5774" height="3.66695" rx="1.83348" fill="url(#paint5_linear_448_200893)"/>
<rect x="102.471" y="64.2012" width="11.612" height="3.66695" rx="1.83348" fill="url(#paint6_linear_448_200893)"/>
<g filter="url(#filter5_d_448_200893)">
<path d="M99.7033 114.483L42.0328 152.526C40.6783 153.42 38.8738 152.448 38.8738 150.826L38.8738 74.7395C38.8738 73.1168 40.6783 72.1454 42.0328 73.0389L99.7033 111.082C100.924 111.887 100.924 113.678 99.7033 114.483Z" fill="#F4F4F4"/>
<path d="M99.7033 114.483L42.0328 152.526C40.6783 153.42 38.8738 152.448 38.8738 150.826L38.8738 74.7395C38.8738 73.1168 40.6783 72.1454 42.0328 73.0389L99.7033 111.082C100.924 111.887 100.924 113.678 99.7033 114.483Z" stroke="#EAEAEA" stroke-width="0.532835"/>
</g>
<g filter="url(#filter6_d_448_200893)">
<path d="M111.078 110.527L166.725 151.924C168.069 152.924 169.978 151.965 169.978 150.29L169.978 74.8762C169.978 73.2851 168.235 72.3082 166.878 73.138L111.231 107.155C110 107.907 109.92 109.666 111.078 110.527Z" fill="#F4F4F4"/>
<path d="M111.078 110.527L166.725 151.924C168.069 152.924 169.978 151.965 169.978 150.29L169.978 74.8762C169.978 73.2851 168.235 72.3082 166.878 73.138L111.231 107.155C110 107.907 109.92 109.666 111.078 110.527Z" stroke="#EAEAEA" stroke-width="0.532835"/>
</g>
<g filter="url(#filter7_d_448_200893)">
<path d="M111.524 103.221L168.214 143.79C172.938 147.17 170.546 154.621 164.738 154.621H44.0827C38.2745 154.621 35.8833 147.17 40.6066 143.79L97.297 103.221C101.551 100.176 107.27 100.176 111.524 103.221Z" fill="#F4F4F4"/>
<path d="M111.524 103.221L168.214 143.79C172.938 147.17 170.546 154.621 164.738 154.621H44.0827C38.2745 154.621 35.8833 147.17 40.6066 143.79L97.297 103.221C101.551 100.176 107.27 100.176 111.524 103.221Z" stroke="#EAEAEA" stroke-width="0.532835"/>
</g>
</g>
<defs>
<filter id="filter0_d_448_200893" x="3.8147e-05" y="-4.22644" width="208.821" height="204.937" filterUnits="userSpaceOnUse" color-interpolation-filters="sRGB">
<feFlood flood-opacity="0" result="BackgroundImageFix"/>
<feColorMatrix in="SourceAlpha" type="matrix" values="0 0 0 0 0 0 0 0 0 0 0 0 0 0 0 0 0 0 127 0" result="hardAlpha"/>
<feOffset dy="7.99252"/>
<feGaussianBlur stdDeviation="18.9156"/>
<feComposite in2="hardAlpha" operator="out"/>
<feColorMatrix type="matrix" values="0 0 0 0 0.133333 0 0 0 0 0.188235 0 0 0 0 0.286275 0 0 0 0.1 0"/>
<feBlend mode="normal" in2="BackgroundImageFix" result="effect1_dropShadow_448_200893"/>
<feBlend mode="normal" in="SourceGraphic" in2="effect1_dropShadow_448_200893" result="shape"/>
</filter>
<filter id="filter1_i_448_200893" x="39.119" y="25.6123" width="130.584" height="131.571" filterUnits="userSpaceOnUse" color-interpolation-filters="sRGB">
<feFlood flood-opacity="0" result="BackgroundImageFix"/>
<feBlend mode="normal" in="SourceGraphic" in2="BackgroundImageFix" result="shape"/>
<feColorMatrix in="SourceAlpha" type="matrix" values="0 0 0 0 0 0 0 0 0 0 0 0 0 0 0 0 0 0 127 0" result="hardAlpha"/>
<feOffset dy="3.63887"/>
<feGaussianBlur stdDeviation="3.18402"/>
<feComposite in2="hardAlpha" operator="arithmetic" k2="-1" k3="1"/>
<feColorMatrix type="matrix" values="0 0 0 0 1 0 0 0 0 1 0 0 0 0 1 0 0 0 0.25 0"/>
<feBlend mode="normal" in2="shape" result="effect1_innerShadow_448_200893"/>
</filter>
<filter id="filter2_d_448_200893" x="76.8434" y="52.2888" width="75.712" height="87.3801" filterUnits="userSpaceOnUse" color-interpolation-filters="sRGB">
<feFlood flood-opacity="0" result="BackgroundImageFix"/>
<feColorMatrix in="SourceAlpha" type="matrix" values="0 0 0 0 0 0 0 0 0 0 0 0 0 0 0 0 0 0 127 0" result="hardAlpha"/>
<feOffset dy="0.611159"/>
<feGaussianBlur stdDeviation="1.0186"/>
<feComposite in2="hardAlpha" operator="out"/>
<feColorMatrix type="matrix" values="0 0 0 0 0 0 0 0 0 0 0 0 0 0 0 0 0 0 0.1 0"/>
<feBlend mode="normal" in2="BackgroundImageFix" result="effect1_dropShadow_448_200893"/>
<feBlend mode="normal" in="SourceGraphic" in2="effect1_dropShadow_448_200893" result="shape"/>
</filter>
<filter id="filter3_d_448_200893" x="56.6416" y="49.9578" width="79.8292" height="89.6017" filterUnits="userSpaceOnUse" color-interpolation-filters="sRGB">
<feFlood flood-opacity="0" result="BackgroundImageFix"/>
<feColorMatrix in="SourceAlpha" type="matrix" values="0 0 0 0 0 0 0 0 0 0 0 0 0 0 0 0 0 0 127 0" result="hardAlpha"/>
<feOffset dy="0.611159"/>
<feGaussianBlur stdDeviation="1.0186"/>
<feComposite in2="hardAlpha" operator="out"/>
<feColorMatrix type="matrix" values="0 0 0 0 0 0 0 0 0 0 0 0 0 0 0 0 0 0 0.1 0"/>
<feBlend mode="normal" in2="BackgroundImageFix" result="effect1_dropShadow_448_200893"/>
<feBlend mode="normal" in="SourceGraphic" in2="effect1_dropShadow_448_200893" result="shape"/>
</filter>
<filter id="filter4_d_448_200893" x="67.5421" y="39.4561" width="73.7311" height="90.2319" filterUnits="userSpaceOnUse" color-interpolation-filters="sRGB">
<feFlood flood-opacity="0" result="BackgroundImageFix"/>
<feColorMatrix in="SourceAlpha" type="matrix" values="0 0 0 0 0 0 0 0 0 0 0 0 0 0 0 0 0 0 127 0" result="hardAlpha"/>
<feMorphology radius="2.13134" operator="dilate" in="SourceAlpha" result="effect1_dropShadow_448_200893"/>
<feOffset dy="0.611159"/>
<feGaussianBlur stdDeviation="3.05579"/>
<feComposite in2="hardAlpha" operator="out"/>
<feColorMatrix type="matrix" values="0 0 0 0 0 0 0 0 0 0 0 0 0 0 0 0 0 0 0.1 0"/>
<feBlend mode="normal" in2="BackgroundImageFix" result="effect1_dropShadow_448_200893"/>
<feBlend mode="normal" in="SourceGraphic" in2="effect1_dropShadow_448_200893" result="shape"/>
</filter>
<filter id="filter5_d_448_200893" x="36.5702" y="64.2829" width="78.5753" height="96.9987" filterUnits="userSpaceOnUse" color-interpolation-filters="sRGB">
<feFlood flood-opacity="0" result="BackgroundImageFix"/>
<feColorMatrix in="SourceAlpha" type="matrix" values="0 0 0 0 0 0 0 0 0 0 0 0 0 0 0 0 0 0 127 0" result="hardAlpha"/>
<feOffset dx="6.11159"/>
<feGaussianBlur stdDeviation="4.07439"/>
<feComposite in2="hardAlpha" operator="out"/>
<feColorMatrix type="matrix" values="0 0 0 0 0.133333 0 0 0 0 0.188235 0 0 0 0 0.286275 0 0 0 0.1 0"/>
<feBlend mode="normal" in2="BackgroundImageFix" result="effect1_dropShadow_448_200893"/>
<feBlend mode="normal" in="SourceGraphic" in2="effect1_dropShadow_448_200893" result="shape"/>
</filter>
<filter id="filter6_d_448_200893" x="95.7295" y="64.4206" width="76.5518" height="96.3259" filterUnits="userSpaceOnUse" color-interpolation-filters="sRGB">
<feFlood flood-opacity="0" result="BackgroundImageFix"/>
<feColorMatrix in="SourceAlpha" type="matrix" values="0 0 0 0 0 0 0 0 0 0 0 0 0 0 0 0 0 0 127 0" result="hardAlpha"/>
<feOffset dx="-6.11159"/>
<feGaussianBlur stdDeviation="4.07439"/>
<feComposite in2="hardAlpha" operator="out"/>
<feColorMatrix type="matrix" values="0 0 0 0 0.133333 0 0 0 0 0.188235 0 0 0 0 0.286275 0 0 0 0.1 0"/>
<feBlend mode="normal" in2="BackgroundImageFix" result="effect1_dropShadow_448_200893"/>
<feBlend mode="normal" in="SourceGraphic" in2="effect1_dropShadow_448_200893" result="shape"/>
</filter>
<filter id="filter7_d_448_200893" x="28.7341" y="83.7501" width="151.353" height="72.4102" filterUnits="userSpaceOnUse" color-interpolation-filters="sRGB">
<feFlood flood-opacity="0" result="BackgroundImageFix"/>
<feColorMatrix in="SourceAlpha" type="matrix" values="0 0 0 0 0 0 0 0 0 0 0 0 0 0 0 0 0 0 127 0" result="hardAlpha"/>
<feOffset dy="-7.82358"/>
<feGaussianBlur stdDeviation="4.54859"/>
<feComposite in2="hardAlpha" operator="out"/>
<feColorMatrix type="matrix" values="0 0 0 0 0.133333 0 0 0 0 0.188235 0 0 0 0 0.286275 0 0 0 0.04 0"/>
<feBlend mode="normal" in2="BackgroundImageFix" result="effect1_dropShadow_448_200893"/>
<feBlend mode="normal" in="SourceGraphic" in2="effect1_dropShadow_448_200893" result="shape"/>
</filter>
<linearGradient id="paint0_linear_448_200893" x1="88.3219" y1="56.459" x2="88.3219" y2="69.7008" gradientUnits="userSpaceOnUse">
<stop stop-color="#F0F0F0"/>
<stop offset="1" stop-color="#EAEAEA"/>
</linearGradient>
<linearGradient id="paint1_linear_448_200893" x1="113.37" y1="57.8867" x2="113.37" y2="61.5537" gradientUnits="userSpaceOnUse">
<stop stop-color="#F0F0F0"/>
<stop offset="1" stop-color="#EAEAEA"/>
</linearGradient>
<linearGradient id="paint2_linear_448_200893" x1="102.99" y1="75.8145" x2="102.99" y2="79.4814" gradientUnits="userSpaceOnUse">
<stop stop-color="#F0F0F0"/>
<stop offset="1" stop-color="#EAEAEA"/>
</linearGradient>
<linearGradient id="paint3_linear_448_200893" x1="102.99" y1="83.1475" x2="102.99" y2="86.8144" gradientUnits="userSpaceOnUse">
<stop stop-color="#F0F0F0"/>
<stop offset="1" stop-color="#EAEAEA"/>
</linearGradient>
<linearGradient id="paint4_linear_448_200893" x1="102.99" y1="91.498" x2="102.99" y2="95.165" gradientUnits="userSpaceOnUse">
<stop stop-color="#F0F0F0"/>
<stop offset="1" stop-color="#EAEAEA"/>
</linearGradient>
<linearGradient id="paint5_linear_448_200893" x1="102.99" y1="99.8516" x2="102.99" y2="103.519" gradientUnits="userSpaceOnUse">
<stop stop-color="#F0F0F0"/>
<stop offset="1" stop-color="#EAEAEA"/>
</linearGradient>
<linearGradient id="paint6_linear_448_200893" x1="108.277" y1="64.2012" x2="108.277" y2="67.8681" gradientUnits="userSpaceOnUse">
<stop stop-color="#F0F0F0"/>
<stop offset="1" stop-color="#EAEAEA"/>
</linearGradient>
</defs>
</svg>
