<svg width="148" height="187" viewBox="0 0 148 187" fill="none" xmlns="http://www.w3.org/2000/svg">
<path d="M23.4097 93.5212C24.6651 93.048 26.3846 92.6174 27.6938 92.2537L34.5045 90.3657L56.0929 84.3788L65.0037 81.8667C66.3583 81.485 69.2287 80.5854 70.4673 80.5449C72.0019 80.806 74.28 81.4985 75.8211 81.9258L84.6726 84.3674L112.924 92.1027C117.847 93.4589 122.073 94.811 127.101 95.9959C128.83 96.7617 130.215 99.2243 131.343 100.762L136.391 107.603C137.108 108.562 137.91 109.457 138.651 110.397C140.476 112.681 142.228 115.022 143.905 117.417C144.536 118.304 145.374 119.285 145.773 120.298C145.87 120.542 145.935 120.745 145.806 120.988C144.972 122.553 129.164 126.932 128.213 128.609C128.342 129.814 128.28 131.284 128.275 132.517C128.253 138.248 128.307 143.931 128.295 149.664C128.29 151.964 127.868 151.853 125.974 152.943C118.388 156.862 110.72 160.627 103.136 164.547L87.298 172.766C86.2023 173.33 80.9337 176.199 80.2467 176.204C80.0732 176.126 79.9271 176.078 79.784 175.96C77.6451 175.245 74.2285 173.597 72.0196 172.712C64.8946 169.825 57.9021 166.682 50.8956 163.527C41.8161 159.438 32.2602 155.894 23.2733 151.626C22.897 148.708 23.0711 142.734 23.1015 139.484C23.1437 134.983 22.9274 129.416 23.1447 124.979C22.2013 124.14 13.9025 121.334 12.2282 120.704C10.81 120.17 8.5733 119.228 7.10352 118.621C7.77528 117.062 8.7036 115.688 9.61474 114.26L14.1959 107.234C15.8913 104.62 21.3909 95.148 23.4097 93.5212Z" fill="#CDCDCD"/>
<path d="M70.4671 80.5449C72.0017 80.806 74.2798 81.4985 75.8209 81.9258L84.6724 84.3674L112.924 92.1027C117.847 93.4589 122.073 94.811 127.101 95.9959C128.83 96.7617 130.215 99.2243 131.343 100.762L136.39 107.603C137.108 108.562 137.91 109.457 138.651 110.397C140.476 112.681 142.228 115.022 143.905 117.417C144.536 118.304 145.374 119.285 145.772 120.298C145.869 120.542 145.935 120.745 145.806 120.988C144.972 122.553 129.164 126.932 128.213 128.609C127.96 128.578 127.755 128.577 127.513 128.676C122.017 130.882 116.457 132.775 111.02 135.141C107.801 136.542 104.259 137.534 101.027 138.986C99.7412 139.564 98.4673 139.918 97.2189 140.637C94.2486 135.014 90.427 129.603 87.4209 124.051C86.2585 121.904 80.4885 113.399 80.1312 111.704C79.6999 111.475 77.9961 110.956 77.4656 110.787C75.1789 110.032 72.8711 109.342 70.5452 108.718C70.4471 107.589 70.5337 105.926 70.4795 104.655C69.8222 104.458 69.5484 104.428 68.8594 104.354C68.9911 103.8 69.2053 103.215 69.3909 102.671L70.5492 102.938C70.5189 99.3749 70.4505 95.7167 70.5831 92.1645C71.012 91.6231 70.6575 91.2136 70.3976 90.6448C70.7025 89.78 70.5398 81.9509 70.4671 80.5449Z" fill="#D9D9D9"/>
<path d="M70.4671 80.5449C72.0017 80.806 74.2798 81.4985 75.8209 81.9258L84.6724 84.3674L112.924 92.1027C117.847 93.4589 122.073 94.811 127.101 95.9959C125.756 97.2865 121.103 98.2781 119.086 98.9244L103.638 104.01C97.8976 105.921 92.2428 108.062 86.3999 109.688C84.3178 110.267 82.2295 111.181 80.1312 111.704C79.6999 111.475 77.9961 110.956 77.4656 110.787C75.1789 110.032 72.8711 109.342 70.5452 108.718C70.4471 107.589 70.5337 105.926 70.4795 104.655C69.8222 104.458 69.5484 104.428 68.8594 104.354C68.9911 103.8 69.2053 103.215 69.3909 102.671L70.5492 102.938C70.5189 99.3749 70.4505 95.7167 70.5831 92.1645C71.012 91.6231 70.6575 91.2136 70.3976 90.6448C70.7025 89.78 70.5398 81.9509 70.4671 80.5449Z" fill="#969696"/>
<path d="M69.3909 102.67L70.5492 102.938C71.249 103.078 71.8462 103.21 72.5633 103.257L72.4143 105.258L70.4795 104.654C69.8222 104.458 69.5484 104.428 68.8594 104.354C68.9911 103.799 69.2053 103.215 69.3909 102.67Z" fill="#D9D9D9"/>
<path d="M79.0262 102.982C79.1812 102.941 79.2311 102.964 79.4021 102.979C79.7012 103.381 79.7921 104.034 79.9019 104.541C78.9656 104.796 78.0311 105.058 77.0985 105.327C76.8284 105.374 76.8322 105.388 76.5617 105.292C76.2573 104.848 76.2602 104.034 76.1992 103.454C77.15 103.432 78.1087 103.212 79.0262 102.982Z" fill="#D9D9D9"/>
<path d="M84.9617 99.1196C85.091 99.1865 86.219 100.024 86.417 100.163C85.6978 101.126 84.9139 101.799 83.9909 102.549L83.7544 102.671C83.3508 102.48 82.9898 101.778 82.7109 101.353C83.5618 100.65 84.3007 100.009 84.9617 99.1196Z" fill="#D9D9D9"/>
<path d="M76.8756 87.8389L77.1385 87.8621C77.3793 88.2164 77.5188 88.9927 77.6261 89.4456C76.6566 89.625 75.6281 89.9683 74.71 90.3237L74.431 90.2381C74.1441 89.8327 73.9823 89.1757 73.832 88.6847C74.8751 88.3702 75.8184 88.099 76.8756 87.8389Z" fill="#CDCDCD"/>
<path d="M81.5288 87.6577C82.3074 87.7314 84.3115 88.3706 84.8024 88.9775C84.836 89.3363 84.4473 89.8479 84.2383 90.1865L84.1879 90.2528C83.7183 90.3208 82.069 89.4754 81.1523 89.2903L81.5288 87.6577Z" fill="#CDCDCD"/>
<path d="M87.3619 92.5708C87.5856 92.5839 87.4834 92.5736 87.709 92.726C88.0713 93.5056 88.4316 95.5259 87.8201 96.2084L87.2417 96.2301C86.9646 96.1721 86.9357 96.1572 86.6732 96.0427C86.2824 95.3104 86.1893 93.915 86.2845 93.0853C86.5737 92.7418 86.8737 92.7356 87.3619 92.5708Z" fill="#CDCDCD"/>
<path d="M63.6629 140.362C67.9638 133.536 71.9792 126.366 75.8818 119.305C76.923 117.421 79.2228 113.958 79.9916 112.11L80.0176 155.722L80.0188 169.411C80.0144 171.269 80.04 173.143 80.0295 175.001C80.0267 175.509 80.0343 175.596 79.7843 175.96C77.6454 175.245 74.2288 173.596 72.0199 172.712C64.8949 169.824 57.9024 166.682 50.8959 163.527C41.8163 159.437 32.2605 155.894 23.2736 151.626C22.8973 148.707 23.0714 142.734 23.1018 139.484C23.144 134.983 22.9277 129.416 23.145 124.979C24.1865 125.067 33.4567 128.927 35.1692 129.585L63.6629 140.362Z" fill="#D9D9D9"/>
<path d="M23.4082 93.5212C24.6636 93.048 26.3832 92.6174 27.6923 92.2537L34.503 90.3657L56.0914 84.3788L65.0022 81.8667C66.3568 81.485 69.2272 80.5854 70.4658 80.5449C70.5385 81.9509 70.7012 89.78 70.3963 90.6448C70.6562 91.2136 71.0107 91.6231 70.5818 92.1645C70.4492 95.7167 70.5176 99.3749 70.5479 102.938L69.3896 102.671C69.204 103.215 68.9898 103.8 68.8581 104.354C69.5471 104.428 69.8209 104.458 70.4782 104.655C70.5324 105.926 70.4458 107.589 70.5439 108.718C56.9006 104.193 43.2048 99.8285 29.459 95.6252C28.0361 95.1941 26.6207 94.757 25.2193 94.2597C24.5665 94.0281 24.057 93.7081 23.4082 93.5212Z" fill="#737373"/>
<path d="M67.127 92.336L67.7628 91.8932C68.5233 91.3668 69.5464 90.4894 70.3971 90.6446C70.657 91.2134 71.0115 91.6229 70.5826 92.1643C69.9439 92.4367 68.7963 93.3409 68.2486 93.794L67.127 92.336Z" fill="#CDCDCD"/>
<path d="M58.9435 100.307C59.329 100.373 60.0331 100.955 60.3897 101.215C59.8065 102.153 59.1546 103.12 58.5489 104.05C58.2765 104.037 57.3908 103.403 57.0996 103.215C57.6275 102.193 58.2444 101.22 58.9435 100.307Z" fill="#D9D9D9"/>
<path d="M63.3499 99.2407C63.8545 99.3669 65.2356 100.596 66.1157 101.059C65.8378 101.564 65.4334 102.145 65.1119 102.635C64.2541 101.871 63.1902 101.135 62.2227 100.518C62.5621 100.103 62.989 99.6468 63.3499 99.2407Z" fill="#D9D9D9"/>
<path d="M59.2168 93.7231C59.5784 93.8271 60.418 95.6787 60.9783 96.3664C60.537 96.711 60.0377 97.0536 59.5793 97.3814C59.0587 96.7563 58.1682 95.0744 57.7754 94.3483C58.284 94.1535 58.7222 93.9522 59.2168 93.7231Z" fill="#D9D9D9"/>
<path d="M56.2429 86.7672L57.8136 86.7559C57.8668 87.5969 58.3016 89.5322 57.969 90.069L56.5063 90.3618C56.2789 89.381 56.2356 87.7792 56.2429 86.7672Z" fill="#D9D9D9"/>
<path d="M64.0221 94.8755C64.2819 94.9847 64.9088 95.7293 65.1344 95.9801C64.4151 96.7899 63.4991 97.6571 62.7196 98.4288C62.3074 97.9215 62.0372 97.6637 61.5566 97.2139C62.3187 96.4146 63.2041 95.617 64.0221 94.8755Z" fill="#D9D9D9"/>
<path d="M98.9736 37.2429C98.4845 36.6462 93.1304 36.3987 91.514 34.8639C86.3208 29.9328 92.7032 22.5213 98.4196 26.3843C100.591 27.8515 100.896 31.6354 101.207 34.0711C101.59 33.9346 102.128 33.7966 102.53 33.6809C103.6 33.5396 105.014 33.613 106.123 33.6405L106.186 33.7428C107.168 35.3588 107.603 35.3224 108.487 36.4261C108.714 37.3633 108.563 38.7125 108.377 39.6583C108.292 39.9576 108.157 40.4892 108.054 40.7607L107.8 40.8024C107.752 41.0101 107.731 41.0202 107.738 41.2265C107.339 41.6417 105.994 42.8443 105.831 43.047C105.757 42.9168 105.744 42.9411 105.596 42.8463L104.873 42.9685C103.242 43.2768 100.739 43.1381 99.0045 43.1217C98.8992 41.5803 98.9264 38.8152 98.9736 37.2429Z" fill="#D9D9D9"/>
<path d="M102.531 33.6808C103.601 33.5395 105.015 33.6128 106.124 33.6404L106.187 33.7427C107.169 35.3587 107.604 35.3222 108.488 36.426C108.715 37.3631 108.564 38.7124 108.378 39.6581C108.293 39.9575 108.158 40.4891 108.055 40.7606L107.801 40.8023C107.753 41.01 107.732 41.02 107.739 41.2263C107.34 41.6415 105.995 42.8441 105.832 43.0469C105.758 42.9167 105.745 42.9409 105.597 42.8461L105.664 42.7432C105.505 41.911 100.406 37.6365 99.6286 36.5378C99.0534 35.7252 100.448 34.7063 101.022 34.3402L101.208 34.071C101.591 33.9345 102.129 33.7965 102.531 33.6808Z" fill="#737373"/>
<path d="M102.529 33.6808C103.6 33.5395 105.014 33.6128 106.122 33.6404L106.186 33.7427C107.168 35.3587 107.603 35.3222 108.486 36.426C108.713 37.3631 108.563 38.7124 108.376 39.6581C107.124 38.2842 105.572 36.9068 104.284 35.537C103.701 34.916 102.996 34.3986 102.529 33.6808Z" fill="#737373"/>
<path d="M101.207 34.0709C101.59 33.9344 102.128 33.7964 102.53 33.6807C102.996 34.3985 103.701 34.9159 104.285 35.5369C105.573 36.9066 107.125 38.2841 108.377 39.658C108.292 39.9574 108.158 40.489 108.054 40.7605L107.801 40.8022C107.752 41.0099 107.732 41.0199 107.739 41.2262C107.373 40.5205 101.958 35.3039 101.021 34.3401L101.207 34.0709Z" fill="#D9D9D9"/>
<path d="M98.9734 37.2427C99.0232 37.6959 99.0895 37.916 99.4019 38.2564C100.829 39.8114 102.375 41.5317 103.997 42.8756C104.375 42.9588 104.485 42.9648 104.873 42.9683C103.241 43.2766 100.738 43.1379 99.0043 43.1215C98.899 41.5801 98.9262 38.815 98.9734 37.2427Z" fill="#737373"/>
<path d="M107.739 41.2265C107.732 41.0202 107.752 41.0101 107.801 40.8024L108.055 40.7607C109.907 40.9636 111.422 41.1389 113.238 41.6837C116.93 42.7909 118.582 46.6082 116.563 49.9486C116.276 50.4233 115.847 50.861 115.406 51.2067C114.182 52.1673 112.628 52.6038 111.083 52.4205C108.457 52.0942 107.035 50.1788 106.442 47.7515C106.117 46.4167 105.604 44.4074 105.832 43.047C105.995 42.8443 107.34 41.6417 107.739 41.2265Z" fill="#D9D9D9"/>
<path d="M112.307 28.9947C112.491 28.3962 113.149 26.2763 113.644 26.0122C113.801 26.6566 112.982 28.5784 112.708 29.3015C112.936 29.5644 113.835 30.7347 113.999 30.8234C114.646 30.6857 116.879 30.1245 117.334 30.3339C116.591 31.0193 114.953 31.1605 113.956 31.3071C114.68 34.4039 112.927 36.399 109.876 36.4317C109.444 36.4363 108.802 36.2554 108.487 36.426C107.603 35.3222 107.168 35.3587 106.186 33.7426L106.123 33.6404C105.787 29.321 108.395 27.8872 112.307 28.9947Z" fill="#969696"/>
<path d="M81.3714 52.623C81.9638 52.6571 82.2213 53.1929 82.2671 53.7155C81.955 54.4825 80.8147 54.9627 80.0588 55.3879C79.453 55.4691 79.0885 55.1019 79.0918 54.5113C79.4832 53.7032 80.5966 53.124 81.3714 52.623Z" fill="#969696"/>
<path d="M64.6501 66.5693C66.5174 67.6655 64.8818 69.0975 63.7592 69.9942C63.2278 69.8212 63.0496 69.7727 62.8359 69.2753C62.8623 68.3838 64.0307 67.2406 64.6501 66.5693Z" fill="#737373"/>
<path d="M60.3375 72.7627C60.7286 72.8355 60.7866 72.8628 61.1387 73.0505C61.6834 73.8976 60.6466 75.5315 60.0035 76.0889C59.627 76.0237 59.464 76.0134 59.127 75.8246C58.5879 74.8959 59.5959 73.3132 60.3375 72.7627Z" fill="#737373"/>
<path d="M94.236 45.333C94.6886 45.4509 95.0134 45.8296 95.029 46.2945C94.7574 47.002 93.2373 47.5957 92.5091 47.9542C92.4722 47.9548 92.4353 47.9553 92.3984 47.9557C90.1871 46.7749 93.8489 45.4983 94.236 45.333Z" fill="#969696"/>
<path d="M87.794 48.8496C88.1488 49.0611 88.2873 49.2526 88.4894 49.5963C88.5791 50.6836 86.8753 51.1752 86.0252 51.5101C85.8264 51.5213 85.5399 51.3539 85.3438 51.2603C84.8407 50.1883 87.0309 49.2459 87.794 48.8496Z" fill="#969696"/>
<path d="M75.4411 56.7812C75.8603 56.973 76.14 57.2445 76.2088 57.7127C76.0821 58.4709 74.8105 59.1359 74.1384 59.8378L74.0406 59.941C73.6621 59.5878 73.2918 59.0705 72.9707 58.6516C73.5089 58.1604 74.7634 57.3181 75.4411 56.7812Z" fill="#969696"/>
<path d="M57.4387 79.4653C57.8148 79.5304 57.8973 79.5683 58.2473 79.7255C58.9678 80.4899 58.1715 82.3437 57.6218 83.0435C57.2742 82.9947 57.209 82.9595 56.8894 82.8093C56.1873 82.0801 56.9485 80.1704 57.4387 79.4653Z" fill="#CDCDCD"/>
<path d="M69.7165 61.5098C70.2625 61.6579 70.4225 61.7641 70.587 62.2762C70.4358 63.2053 69.2307 64.0146 68.4964 64.5728C68.0023 64.1601 67.9353 64.2285 67.7285 63.7009C67.8259 62.8662 68.9806 62.1671 69.7165 61.5098Z" fill="#737373"/>
</svg>
