<svg width="34" height="34" viewBox="0 0 34 34" fill="none" xmlns="http://www.w3.org/2000/svg">
<rect width="34" height="34" rx="6" fill="#F23E57"/>
<path d="M17.0628 17.015C17.0628 15.9495 16.8545 14.8944 16.4499 13.91C16.0453 12.9256 15.4522 12.0312 14.7046 11.2778C14.206 10.7753 13.6452 10.3422 13.0371 9.98838C13.3408 9.81168 13.6563 9.65476 13.9817 9.51894C14.9585 9.1112 16.0055 8.90134 17.0628 8.90134V17.015Z" fill="white"/>
<path d="M25.114 8.88672C25.114 9.95222 24.9057 11.0073 24.5011 11.9917C24.0965 12.9761 23.5035 13.8705 22.7558 14.6239C22.0082 15.3773 21.1207 15.975 20.1438 16.3827C19.167 16.7905 18.1201 17.0004 17.0628 17.0004V8.88672H25.114Z" fill="white"/>
<path d="M25.114 25.114C25.114 24.0485 24.9057 22.9934 24.5011 22.009C24.0965 21.0246 23.5035 20.1302 22.7558 19.3768C22.0082 18.6234 21.1207 18.0257 20.1438 17.618C19.167 17.2102 18.1201 17.0004 17.0628 17.0004V25.114H25.114Z" fill="white"/>
<path d="M9.62441 13.7852C9.21979 14.7696 8.88672 15.5025 8.88672 17.015L8.89396 25.0994C8.89396 24.0339 9.22703 22.9788 9.63164 21.9944C10.0362 21.01 10.6293 20.1156 11.3769 19.3622C12.1246 18.6088 13.0121 18.0111 13.9889 17.6033C14.9658 17.1956 16.0055 17.0004 17.0628 17.0004C17.0609 15.9398 16.8527 14.8899 16.4499 13.91C16.0453 12.9256 15.4522 12.0312 14.7046 11.2778C14.2085 10.7778 13.6417 10.3412 13.0371 9.98838C12.4229 10.3439 11.8727 10.7708 11.3697 11.2778C10.6221 12.0312 10.029 12.8008 9.62441 13.7852Z" fill="white"/>
</svg>
